<?xml version="1.0" encoding="UTF-8" ?>
<!DOCTYPE svg PUBLIC "-//W3C//DTD SVG 1.1//EN" "http://www.w3.org/Graphics/SVG/1.1/DTD/svg11.dtd">
<svg width="393pt" height="503pt" viewBox="0 0 393 503" version="1.1" xmlns="http://www.w3.org/2000/svg">
<g id="#ce8b66fb">
<path fill="#ce8b66" opacity="1.00" d=" M 72.13 415.46 C 71.91 413.87 74.78 410.03 76.24 411.63 C 75.17 413.17 73.86 414.65 72.13 415.46 Z" />
<path fill="#ce8b66" opacity="1.00" d=" M 161.75 411.64 C 162.94 409.86 165.32 413.07 164.87 414.44 C 163.61 413.79 162.44 412.89 161.75 411.64 Z" />
<path fill="#ce8b66" opacity="1.00" d=" M 243.94 416.51 C 244.69 414.09 247.00 412.68 248.61 410.87 C 248.97 411.31 249.69 412.19 250.05 412.63 L 248.73 411.90 C 247.04 413.34 245.55 414.99 243.94 416.51 Z" />
<path fill="#ce8b66" opacity="1.00" d=" M 334.70 411.67 C 335.53 409.88 337.51 412.17 336.84 413.39 C 336.30 412.96 335.24 412.10 334.70 411.67 Z" />
<path fill="#ce8b66" opacity="1.00" d=" M 77.09 412.76 C 80.15 415.72 83.60 418.42 85.77 422.16 C 86.89 424.03 89.75 424.97 89.86 427.30 C 87.08 425.08 84.81 422.33 82.67 419.52 C 80.96 417.14 78.74 415.18 77.09 412.76 Z" />
<path fill="#ce8b66" opacity="1.00" d=" M 250.99 413.68 C 253.30 415.71 255.46 417.90 257.57 420.15 C 258.50 418.07 261.17 419.31 262.92 418.97 L 262.90 420.29 C 261.97 420.07 260.10 419.63 259.17 419.41 C 264.04 425.98 270.22 431.47 275.34 437.85 L 273.52 438.19 C 270.04 435.02 267.00 431.40 263.78 427.98 C 259.65 423.09 254.70 418.92 250.99 413.68 Z" />
<path fill="#ce8b66" opacity="1.00" d=" M 62.37 418.99 C 64.35 418.99 66.34 419.04 68.32 419.08 C 66.51 419.42 64.66 419.45 62.83 419.51 C 60.03 422.06 57.62 425.00 54.90 427.62 L 55.19 426.47 C 57.43 423.83 60.08 421.58 62.37 418.99 Z" />
<path fill="#ce8b66" opacity="1.00" d=" M 88.10 419.07 C 88.75 419.27 90.06 419.66 90.72 419.86 C 91.16 420.75 90.87 421.23 89.87 421.28 C 89.42 420.73 88.54 419.62 88.10 419.07 Z" />
<path fill="#ce8b66" opacity="1.00" d=" M 173.08 419.11 L 173.64 419.12 L 173.65 419.91 C 173.50 419.71 173.22 419.31 173.08 419.11 Z" />
<path fill="#ce8b66" opacity="1.00" d=" M 342.19 419.01 C 344.35 418.99 346.50 418.99 348.67 419.02 C 350.94 421.60 353.57 423.85 355.81 426.46 L 356.09 427.62 C 353.33 425.00 350.93 422.04 348.17 419.43 C 347.16 419.42 345.13 419.41 344.12 419.41 C 348.79 425.77 354.67 431.15 359.76 437.19 C 358.47 436.52 357.27 435.68 356.35 434.54 C 351.83 429.19 346.62 424.44 342.19 419.01 Z" />
<path fill="#ce8b66" opacity="1.00" d=" M 177.02 420.68 C 179.34 422.85 181.69 425.00 183.77 427.41 L 184.05 428.57 C 181.49 426.14 179.05 423.57 177.02 420.68 Z" />
<path fill="#ce8b66" opacity="1.00" d=" M 172.03 421.72 C 174.02 423.55 176.07 425.35 177.79 427.45 L 178.10 428.62 C 175.85 426.53 173.78 424.24 172.03 421.72 Z" />
<path fill="#ce8b66" opacity="1.00" d=" M 93.37 425.77 C 93.91 425.77 94.99 425.78 95.53 425.78 C 98.19 429.27 102.25 431.66 104.25 435.60 C 108.38 440.23 113.47 444.10 117.04 449.18 L 115.62 449.30 C 113.60 447.43 111.79 445.36 109.95 443.31 L 109.68 442.99 C 104.66 436.86 98.78 431.54 93.37 425.77 Z" />
<path fill="#ce8b66" opacity="1.00" d=" M 179.10 425.55 C 180.99 426.38 183.04 428.01 183.01 430.29 C 181.42 429.12 178.95 427.80 179.10 425.55 Z" />
<path fill="#ce8b66" opacity="1.00" d=" M 268.13 425.75 C 271.11 429.01 275.27 431.60 277.11 435.66 C 273.98 432.49 270.70 429.40 268.13 425.75 Z" />
<path fill="#ce8b66" opacity="1.00" d=" M 307.19 434.47 C 309.56 431.72 312.23 429.25 314.86 426.76 C 312.71 430.14 309.62 432.75 306.88 435.63 L 307.19 434.47 Z" />
<path fill="#ce8b66" opacity="1.00" d=" M 183.70 430.90 C 185.28 430.81 186.01 431.59 185.88 433.24 C 184.71 432.85 183.99 432.06 183.70 430.90 Z" />
<path fill="#ce8b66" opacity="1.00" d=" M 42.19 440.47 C 44.57 437.71 47.26 435.24 49.89 432.73 C 47.65 436.05 44.66 438.76 41.89 441.62 L 42.19 440.47 Z" />
<path fill="#ce8b66" opacity="1.00" d=" M 135.28 433.39 L 135.71 433.01 L 135.74 433.60 L 135.34 433.99 L 135.28 433.39 Z" />
<path fill="#ce8b66" opacity="1.00" d=" M 188.20 432.81 C 191.12 435.62 194.08 438.40 196.78 441.42 L 197.07 442.60 C 193.96 439.47 190.91 436.28 188.20 432.81 Z" />
<path fill="#ce8b66" opacity="1.00" d=" M 213.89 442.67 C 215.70 438.61 219.88 436.04 222.84 432.76 C 220.28 436.42 216.96 439.45 213.89 442.67 Z" />
<path fill="#ce8b66" opacity="1.00" d=" M 361.12 432.74 C 363.78 435.66 367.57 437.94 369.11 441.64 C 366.33 438.79 363.35 436.06 361.12 432.74 Z" />
<path fill="#ce8b66" opacity="1.00" d=" M 387.20 441.44 C 388.98 439.29 391.12 437.48 393.00 435.43 L 393.00 438.19 L 392.18 437.17 C 390.40 438.96 388.68 440.80 386.91 442.59 L 387.20 441.44 Z" />
<path fill="#ce8b66" opacity="1.00" d=" M 120.95 449.66 C 122.65 445.59 126.91 443.05 129.83 439.77 C 127.30 443.42 123.96 446.41 120.95 449.66 Z" />
<path fill="#ce8b66" opacity="1.00" d=" M 281.11 439.73 C 284.09 442.55 287.06 445.39 289.80 448.45 L 289.99 449.58 C 286.94 446.39 283.66 443.36 281.11 439.73 Z" />
<path fill="#ce8b66" opacity="1.00" d=" M 294.18 448.46 C 296.57 445.72 299.24 443.25 301.87 440.75 C 299.64 444.06 296.63 446.74 293.92 449.64 L 294.18 448.46 Z" />
<path fill="#ce8b66" opacity="1.00" d=" M 32.37 451.11 C 33.84 449.60 35.37 448.16 36.90 446.72 C 35.66 448.52 34.25 450.20 32.76 451.80 C 31.37 450.63 30.18 449.25 29.17 447.75 C 30.26 448.85 31.33 449.97 32.37 451.11 Z" />
</g>
<g id="#f0f0d8ff">
<path fill="#f0f0d8" opacity="1.00" d=" M 76.24 411.63 C 76.45 411.91 76.88 412.47 77.09 412.76 C 78.74 415.18 80.96 417.14 82.67 419.52 C 75.11 427.03 68.21 435.21 60.95 443.01 C 59.01 443.00 57.07 443.00 55.13 443.03 C 50.08 448.52 45.12 454.11 40.00 459.54 C 37.65 456.90 35.37 454.19 32.76 451.80 C 34.25 450.20 35.66 448.52 36.90 446.72 C 38.52 444.97 40.24 443.33 41.89 441.62 C 44.66 438.76 47.65 436.05 49.89 432.73 C 51.51 430.98 53.24 429.33 54.90 427.62 C 57.62 425.00 60.03 422.06 62.83 419.51 C 64.66 419.45 66.51 419.42 68.32 419.08 C 69.71 418.00 70.84 416.64 72.13 415.46 C 73.86 414.65 75.17 413.17 76.24 411.63 Z" />
<path fill="#f0f0d8" opacity="1.00" d=" M 154.62 419.09 C 156.99 416.60 159.52 414.26 161.75 411.64 C 162.44 412.89 163.61 413.79 164.87 414.44 C 167.33 416.79 169.69 419.25 172.03 421.72 C 173.78 424.24 175.85 426.53 178.10 428.62 C 182.78 433.21 187.27 437.97 191.47 443.01 C 190.87 443.00 189.68 442.99 189.09 442.98 C 181.87 435.19 174.79 427.26 167.55 419.49 C 160.18 427.16 153.14 435.17 145.95 443.02 C 144.02 443.00 142.10 442.99 140.18 443.00 C 135.09 448.48 130.14 454.09 125.01 459.53 C 121.95 456.06 118.78 452.68 115.62 449.30 L 117.04 449.18 C 117.64 451.36 119.84 451.61 120.95 449.66 C 123.96 446.41 127.30 443.42 129.83 439.77 C 131.66 437.84 133.61 436.02 135.34 433.99 L 135.74 433.60 L 135.71 433.01 C 139.85 428.30 145.15 424.44 148.49 419.14 C 150.53 419.09 152.57 419.08 154.62 419.09 Z" />
<path fill="#f0f0d8" opacity="1.00" d=" M 327.64 419.08 C 329.98 416.59 332.49 414.27 334.70 411.67 C 335.24 412.10 336.30 412.96 336.84 413.39 C 338.71 415.17 340.57 416.98 342.19 419.01 C 346.62 424.44 351.83 429.19 356.35 434.54 C 357.27 435.68 358.47 436.52 359.76 437.19 C 354.67 431.15 348.79 425.77 344.12 419.41 C 345.13 419.41 347.16 419.42 348.17 419.43 C 350.93 422.04 353.33 425.00 356.09 427.62 C 357.76 429.33 359.49 430.99 361.12 432.74 C 363.35 436.06 366.33 438.79 369.11 441.64 C 372.29 444.80 375.42 448.02 378.53 451.26 C 381.19 448.24 384.12 445.48 386.91 442.59 C 388.68 440.80 390.40 438.96 392.18 437.17 L 393.00 438.19 L 393.00 445.44 C 388.57 450.05 384.43 454.92 380.01 459.53 C 374.98 453.84 369.67 448.39 364.73 442.62 C 362.85 442.86 360.94 443.24 359.05 442.91 C 351.72 435.21 344.85 427.06 337.38 419.50 C 330.26 427.34 323.06 435.11 315.99 443.00 C 314.04 442.99 312.10 443.00 310.16 443.01 C 305.08 448.49 300.14 454.10 295.00 459.53 C 290.04 453.97 284.95 448.53 279.96 443.00 C 278.36 441.34 276.84 439.60 275.34 437.85 C 270.22 431.47 264.04 425.98 259.17 419.41 C 260.10 419.63 261.97 420.07 262.90 420.29 C 264.56 422.18 266.40 423.91 268.13 425.75 C 270.70 429.40 273.98 432.49 277.11 435.66 C 278.46 436.99 279.81 438.34 281.11 439.73 C 283.66 443.36 286.94 446.39 289.99 449.58 C 291.00 451.34 292.90 451.51 293.92 449.64 C 296.63 446.74 299.64 444.06 301.87 440.75 C 303.49 438.99 305.22 437.35 306.88 435.63 C 309.62 432.75 312.71 430.14 314.86 426.76 C 317.19 424.42 319.54 422.08 321.36 419.30 C 323.42 418.92 325.54 419.11 327.64 419.08 M 360.30 438.13 C 359.62 439.32 362.96 443.27 363.89 441.14 C 362.77 440.15 362.09 437.86 360.30 438.13 Z" />
<path fill="#f0f0d8" opacity="1.00" d=" M 243.94 416.51 C 245.55 414.99 247.04 413.34 248.73 411.90 L 250.05 412.63 C 250.29 412.89 250.76 413.42 250.99 413.68 C 254.70 418.92 259.65 423.09 263.78 427.98 C 267.00 431.40 270.04 435.02 273.52 438.19 C 275.09 439.70 276.53 441.34 277.97 442.98 C 276.99 442.99 275.02 443.01 274.04 443.01 C 266.87 435.14 259.79 427.17 252.43 419.48 C 245.24 427.29 238.08 435.14 230.96 443.01 C 229.03 443.00 227.10 442.99 225.17 443.00 C 220.08 448.48 215.14 454.10 210.00 459.54 C 205.05 453.97 199.96 448.55 194.97 443.02 C 191.95 439.75 189.03 436.39 185.88 433.24 C 186.01 431.59 185.28 430.81 183.70 430.90 C 183.52 430.75 183.18 430.44 183.01 430.29 C 183.04 428.01 180.99 426.38 179.10 425.55 C 177.19 423.75 175.42 421.83 173.65 419.91 L 173.64 419.12 C 174.12 419.14 175.08 419.16 175.56 419.17 C 175.92 419.55 176.66 420.30 177.02 420.68 C 179.05 423.57 181.49 426.14 184.05 428.57 C 185.43 429.98 186.84 431.37 188.20 432.81 C 190.91 436.28 193.96 439.47 197.07 442.60 C 199.91 445.46 202.77 448.31 205.52 451.26 C 208.23 448.32 211.03 445.47 213.89 442.67 C 216.96 439.45 220.28 436.42 222.84 432.76 C 227.10 428.26 230.91 423.36 235.45 419.10 C 237.49 419.10 239.53 419.08 241.58 419.02 C 242.33 418.27 243.08 417.52 243.83 416.77 L 243.94 416.51 Z" />
<path fill="#f0f0d8" opacity="1.00" d=" M 91.14 423.13 C 90.82 422.15 91.15 421.82 92.13 422.13 C 92.57 422.57 93.44 423.44 93.87 423.88 C 94.18 424.85 93.84 425.17 92.86 424.85 C 92.43 424.42 91.57 423.56 91.14 423.13 Z" />
<path fill="#f0f0d8" opacity="1.00" d=" M 89.86 427.30 L 90.59 427.31 C 96.03 432.00 100.10 437.94 105.13 443.03 L 104.09 442.98 C 99.31 437.79 94.51 432.61 89.86 427.30 Z" />
</g>
<g id="#171f25ff">
<path fill="#171f25" opacity="1.00" d=" M 145.95 443.02 C 153.14 435.17 160.18 427.16 167.55 419.49 C 174.79 427.26 181.87 435.19 189.09 442.98 C 189.68 442.99 190.87 443.00 191.47 443.01 C 192.63 443.01 193.80 443.01 194.97 443.02 C 199.96 448.55 205.05 453.97 210.00 459.54 C 215.14 454.10 220.08 448.48 225.17 443.00 C 227.10 442.99 229.03 443.00 230.96 443.01 C 238.08 435.14 245.24 427.29 252.43 419.48 C 259.79 427.17 266.87 435.14 274.04 443.01 C 275.02 443.01 276.99 442.99 277.97 442.98 C 278.47 442.99 279.46 443.00 279.96 443.00 C 284.95 448.53 290.04 453.97 295.00 459.53 C 300.14 454.10 305.08 448.49 310.16 443.01 C 312.10 443.00 314.04 442.99 315.99 443.00 C 323.06 435.11 330.26 427.34 337.38 419.50 C 344.85 427.06 351.72 435.21 359.05 442.91 C 360.94 443.24 362.85 442.86 364.73 442.62 C 369.67 448.39 374.98 453.84 380.01 459.53 C 384.43 454.92 388.57 450.05 393.00 445.44 L 393.00 503.00 L 0.00 503.00 L 0.00 421.49 C 2.40 423.35 3.43 426.33 5.74 428.27 C 8.23 430.79 10.90 433.15 13.23 435.82 C 14.85 438.44 16.81 440.87 19.13 442.91 C 21.08 443.19 23.22 443.24 24.89 442.02 C 25.08 444.60 27.73 445.86 29.17 447.75 C 30.18 449.25 31.37 450.63 32.76 451.80 C 35.37 454.19 37.65 456.90 40.00 459.54 C 45.12 454.11 50.08 448.52 55.13 443.03 C 57.07 443.00 59.01 443.00 60.95 443.01 C 68.21 435.21 75.11 427.03 82.67 419.52 C 84.81 422.33 87.08 425.08 89.86 427.30 C 94.51 432.61 99.31 437.79 104.09 442.98 L 105.13 443.03 C 106.65 443.03 108.16 443.01 109.68 442.99 L 109.95 443.31 C 111.79 445.36 113.60 447.43 115.62 449.30 C 118.78 452.68 121.95 456.06 125.01 459.53 C 130.14 454.09 135.09 448.48 140.18 443.00 C 142.10 442.99 144.02 443.00 145.95 443.02 Z" />
</g>
</svg>
