<svg width="100" height="100" viewBox="0 0 100 100" fill="none" xmlns="http://www.w3.org/2000/svg">
<g clip-path="url(#clip0_75_108)">
<path d="M50 25C54.625 25 58.3333 21.25 58.3333 16.6667C58.3333 15.0833 57.9167 13.625 57.125 12.375L50 0L42.875 12.375C42.0833 13.625 41.6667 15.0833 41.6667 16.6667C41.6667 21.25 45.4167 25 50 25ZM69.1667 66.625L64.7083 62.1667L60.2083 66.625C54.7917 72.0417 45.2917 72.0833 39.8333 66.625L35.375 62.1667L30.8333 66.625C28.125 69.3333 24.5 70.8333 20.6667 70.8333C17.625 70.8333 14.8333 69.875 12.5 68.2917V87.5C12.5 89.7917 14.375 91.6667 16.6667 91.6667H83.3333C85.625 91.6667 87.5 89.7917 87.5 87.5V68.2917C85.1667 69.875 82.375 70.8333 79.3333 70.8333C75.5 70.8333 71.875 69.3333 69.1667 66.625ZM75 37.5H54.1667V29.1667H45.8333V37.5H25C18.0833 37.5 12.5 43.0833 12.5 50V56.4167C12.5 60.9167 16.1667 64.5833 20.6667 64.5833C22.8333 64.5833 24.9167 63.75 26.4167 62.2083L35.3333 53.3333L44.2083 62.2083C47.2917 65.2917 52.6667 65.2917 55.75 62.2083L64.6667 53.3333L73.5417 62.2083C75.0833 63.75 77.125 64.5833 79.2917 64.5833C83.7917 64.5833 87.4583 60.9167 87.4583 56.4167V50C87.5 43.0833 81.9167 37.5 75 37.5Z" fill="#E3E3E3"/>
</g>
<defs>
<clipPath id="clip0_75_108">
<rect width="100" height="100" fill="white"/>
</clipPath>
</defs>
</svg>
