<?xml version="1.0" encoding="UTF-8" ?>
<!DOCTYPE svg PUBLIC "-//W3C//DTD SVG 1.1//EN" "http://www.w3.org/Graphics/SVG/1.1/DTD/svg11.dtd">
<svg width="1916pt" height="125pt" viewBox="0 0 1916 125" version="1.1" xmlns="http://www.w3.org/2000/svg">
<path fill="#f0f0d8" stroke="#f0f0d8" stroke-width="0.09375" opacity="1.00" d=" M 101.67 12.83 C 105.37 10.05 107.90 6.02 111.59 3.22 C 115.98 7.59 119.77 12.52 124.25 16.81 C 130.77 23.12 136.07 30.70 143.30 36.25 C 141.20 31.75 136.87 28.97 133.84 25.18 C 130.71 21.28 127.13 17.78 123.96 13.92 C 126.03 13.22 128.58 13.01 130.22 14.76 C 135.45 19.56 139.72 25.28 144.75 30.26 C 153.15 38.75 160.52 48.35 169.72 55.99 C 180.10 45.56 189.36 34.10 199.78 23.70 C 202.98 20.58 205.45 16.75 208.90 13.89 C 211.79 12.66 215.56 14.27 218.19 12.12 C 221.28 9.39 223.46 5.78 226.66 3.15 C 230.24 6.29 233.08 10.19 236.68 13.30 C 239.79 14.02 243.64 12.24 246.12 14.84 C 251.58 20.06 256.25 26.05 261.74 31.26 C 269.73 39.04 276.73 47.79 284.96 55.32 C 288.99 49.35 293.87 44.04 298.53 38.58 C 305.18 30.87 311.68 23.03 318.31 15.31 C 320.16 13.02 323.76 13.84 325.71 11.70 C 328.33 9.03 330.36 5.79 333.28 3.40 C 337.21 5.85 339.86 10.08 342.88 13.58 C 332.95 23.86 323.38 34.47 313.72 44.99 C 311.12 45.00 308.52 45.00 305.93 45.01 C 299.39 52.23 293.12 59.71 286.09 66.47 C 286.10 62.91 286.28 59.35 285.91 55.81 C 286.07 59.41 285.05 62.91 283.93 66.29 C 281.31 62.55 278.38 59.05 275.23 55.75 C 269.73 49.92 264.47 43.87 258.83 38.19 C 260.63 40.63 262.66 42.89 264.59 45.23 C 262.21 44.90 259.09 45.86 257.31 43.78 C 248.19 33.71 239.03 23.68 229.88 13.63 C 221.50 22.68 213.27 31.86 204.90 40.92 C 203.61 42.27 202.49 43.85 200.87 44.81 C 197.94 45.66 194.09 44.18 191.90 46.83 C 185.65 53.66 179.50 60.58 172.97 67.13 C 164.45 57.56 155.97 47.95 147.16 38.65 C 145.99 38.55 144.82 38.45 143.65 38.36 C 145.23 40.76 147.27 42.81 149.18 44.95 C 147.80 44.97 146.43 44.99 145.06 45.01 C 135.58 34.56 126.29 23.94 116.50 13.77 C 107.38 23.59 98.45 33.58 89.32 43.38 C 86.72 46.90 81.42 43.49 78.66 46.63 C 72.42 53.29 66.23 60.02 60.38 67.03 C 51.09 57.93 42.67 47.99 33.76 38.53 C 33.43 38.52 32.75 38.50 32.41 38.49 C 29.21 34.40 25.45 30.79 22.09 26.84 C 18.22 22.36 13.62 18.36 10.82 13.08 C 17.22 14.67 20.13 21.19 24.72 25.28 C 33.70 34.98 42.91 44.48 51.76 54.30 C 52.58 54.84 53.50 56.46 54.61 55.69 C 63.68 46.10 72.52 36.24 81.70 26.74 C 85.74 22.44 89.37 17.71 93.82 13.81 C 96.32 12.96 99.15 13.73 101.67 12.83 Z" />
<path fill="#f0f0d8" stroke="#f0f0d8" stroke-width="0.09375" opacity="1.00" d=" M 448.33 3.21 C 455.14 8.88 460.36 16.13 466.70 22.29 C 471.45 26.88 475.42 32.21 480.18 36.79 C 481.18 38.08 482.83 38.02 484.30 37.97 C 481.88 33.50 477.55 30.56 474.41 26.64 C 470.74 22.00 466.12 18.12 463.06 13.00 C 467.65 13.68 470.22 17.80 473.28 20.79 C 477.63 25.10 481.45 29.91 485.75 34.27 C 492.87 41.54 499.20 49.62 507.01 56.18 C 520.07 42.17 532.72 27.75 546.12 14.05 C 548.80 12.48 552.67 14.61 555.17 12.25 C 558.44 9.45 561.02 5.94 564.29 3.12 C 567.83 6.79 571.02 10.77 574.71 14.31 C 579.70 19.20 583.70 25.14 589.38 29.32 C 586.21 23.44 580.43 19.51 576.87 13.85 C 578.71 13.34 581.02 12.82 582.53 14.39 C 590.21 22.70 598.01 30.92 605.71 39.23 C 611.40 44.64 616.02 51.11 622.02 56.21 C 634.49 42.93 646.74 29.47 659.17 16.15 C 661.66 12.79 666.18 13.86 669.70 12.76 C 673.31 10.00 675.96 6.19 679.31 3.14 C 683.06 6.25 685.60 10.51 689.36 13.62 C 692.20 13.68 695.41 12.70 698.02 14.07 C 711.64 27.79 724.28 42.53 738.37 55.80 C 740.00 53.02 741.77 50.31 743.93 47.90 C 753.18 37.15 762.28 26.27 771.45 15.45 C 773.32 12.79 777.33 13.88 779.33 11.39 C 781.98 8.99 783.54 5.17 786.59 3.42 C 790.30 6.76 794.19 10.11 796.77 14.45 C 796.45 14.32 795.80 14.07 795.48 13.94 C 785.97 24.25 776.58 34.67 767.10 44.99 C 764.51 45.00 761.92 45.00 759.34 45.01 C 752.71 52.36 745.87 59.53 739.37 67.00 C 732.11 59.81 725.69 51.80 718.40 44.63 C 715.99 44.93 713.58 45.11 711.18 45.20 C 701.60 34.67 692.05 24.13 682.38 13.69 C 672.73 24.08 663.27 34.65 653.69 45.12 C 651.08 45.20 648.47 45.21 645.88 45.19 C 639.21 52.47 632.56 59.77 625.91 67.07 C 617.16 57.62 608.50 48.08 599.83 38.54 C 598.93 38.56 597.11 38.59 596.21 38.60 C 598.15 40.79 600.11 42.97 602.03 45.19 C 601.03 45.19 599.01 45.18 598.00 45.18 C 588.46 34.78 579.02 24.29 569.63 13.76 C 559.48 23.60 550.24 34.32 540.67 44.71 C 538.09 45.36 535.36 44.88 532.73 44.96 C 525.96 52.30 519.33 59.77 512.54 67.09 C 504.13 57.89 495.76 48.66 487.32 39.49 C 485.81 37.55 483.02 38.96 481.00 38.74 C 482.76 40.97 484.68 43.07 486.49 45.26 C 485.09 44.92 483.69 44.43 482.78 43.26 C 473.86 33.47 465.04 23.59 456.20 13.72 C 446.02 23.69 436.72 34.49 427.11 44.99 C 424.52 45.00 421.93 45.00 419.34 45.01 C 412.67 52.39 405.88 59.67 399.32 67.14 C 396.15 63.68 392.89 60.29 389.84 56.73 C 395.37 53.43 398.89 47.85 403.34 43.35 C 410.14 36.47 416.38 29.07 423.18 22.18 C 425.97 19.38 428.13 15.89 431.39 13.60 C 433.88 13.24 436.42 13.45 438.90 12.96 C 442.78 10.53 445.14 6.40 448.33 3.21 Z" />
<path fill="#f0f0d8" stroke="#f0f0d8" stroke-width="0.09375" opacity="1.00" d=" M 892.65 12.63 C 896.13 9.93 898.76 6.32 901.86 3.22 C 907.13 8.58 912.39 13.95 917.47 19.49 C 923.08 26.07 929.75 31.75 934.68 38.90 C 936.23 41.13 938.06 43.15 939.70 45.32 C 936.91 44.80 935.42 42.26 933.61 40.38 C 925.45 31.62 917.58 22.60 909.54 13.74 C 899.40 23.89 889.93 34.67 880.21 45.21 C 877.59 45.17 874.98 45.18 872.37 45.25 C 865.90 52.67 859.15 59.86 852.56 67.17 C 848.09 62.32 843.63 57.46 839.30 52.48 C 841.42 52.91 842.88 54.58 844.43 55.96 C 850.75 50.45 856.14 43.94 861.83 37.79 C 869.13 30.45 875.68 22.39 883.15 15.22 C 885.63 12.58 889.64 13.99 892.65 12.63 Z" />
<path fill="#f0f0d8" stroke="#f0f0d8" stroke-width="0.09375" opacity="1.00" d=" M 1007.01 13.24 C 1011.06 10.47 1013.79 6.22 1017.62 3.18 C 1023.41 8.70 1027.96 15.47 1034.36 20.35 C 1033.18 17.91 1031.43 15.72 1030.86 13.04 C 1035.68 12.97 1038.64 17.26 1041.66 20.36 C 1052.52 32.52 1063.83 44.27 1075.01 56.13 C 1075.93 55.36 1076.89 54.61 1077.77 53.77 C 1089.27 40.94 1101.30 28.58 1112.82 15.78 C 1115.49 12.43 1120.17 14.16 1123.60 12.69 C 1126.97 9.89 1129.22 5.98 1132.64 3.19 C 1135.61 5.94 1138.23 9.04 1141.11 11.90 C 1144.04 15.71 1149.97 11.16 1152.75 15.30 C 1159.09 22.26 1165.47 29.20 1172.19 35.82 C 1178.71 42.17 1184.15 49.71 1191.48 55.20 C 1190.81 41.90 1191.52 28.56 1191.35 15.25 C 1191.66 15.26 1192.28 15.28 1192.58 15.29 C 1192.70 27.12 1192.58 38.95 1192.21 50.77 C 1192.55 51.01 1193.23 51.48 1193.57 51.72 C 1197.18 45.79 1202.10 40.83 1206.47 35.47 C 1212.18 28.83 1217.87 22.18 1223.48 15.45 C 1225.36 12.84 1229.27 13.81 1231.33 11.43 C 1233.94 8.91 1236.13 6.00 1238.45 3.22 C 1242.22 6.66 1246.26 10.10 1248.76 14.63 C 1248.45 14.44 1247.83 14.07 1247.52 13.88 C 1237.97 24.28 1228.47 34.73 1218.96 45.17 C 1216.38 45.19 1213.81 45.19 1211.24 45.18 C 1204.65 52.13 1198.39 59.39 1192.04 66.55 C 1185.35 59.29 1178.68 52.02 1172.06 44.70 C 1169.60 44.88 1167.16 45.06 1164.74 45.29 C 1154.96 34.87 1145.47 24.19 1135.81 13.68 C 1126.06 24.05 1116.59 34.68 1106.96 45.17 C 1104.38 45.19 1101.81 45.19 1099.25 45.18 C 1092.49 52.41 1085.99 59.86 1079.25 67.10 C 1070.44 57.67 1061.87 48.01 1053.09 38.54 C 1051.96 38.55 1050.84 38.56 1049.73 38.57 C 1051.36 40.89 1053.37 42.90 1055.31 44.97 C 1053.93 44.98 1052.56 45.00 1051.21 45.01 C 1041.57 34.62 1032.07 24.11 1022.50 13.65 C 1012.78 24.03 1003.32 34.66 993.68 45.12 C 991.07 45.19 988.47 45.21 985.88 45.19 C 979.22 52.53 972.56 59.87 965.91 67.21 C 957.00 57.26 947.93 47.46 938.91 37.62 C 938.61 37.67 938.00 37.78 937.70 37.84 C 934.47 33.59 930.55 29.94 927.16 25.82 C 923.65 21.65 919.28 18.04 916.78 13.12 C 918.97 13.67 921.21 14.48 922.66 16.33 C 928.76 23.52 935.57 30.06 941.76 37.19 C 948.13 43.27 953.67 50.16 960.03 56.23 C 964.78 51.87 968.59 46.62 973.25 42.17 C 978.81 35.43 985.24 29.49 990.94 22.87 C 993.87 19.85 996.49 16.47 999.77 13.80 C 1002.07 13.04 1004.62 13.64 1007.01 13.24 M 1035.73 21.75 C 1036.53 24.48 1038.95 26.16 1040.77 28.18 C 1043.24 30.54 1045.29 33.41 1048.23 35.24 C 1047.49 32.49 1045.00 30.84 1043.21 28.81 C 1040.69 26.48 1038.76 23.46 1035.73 21.75 Z" />
<path fill="#f0f0d8" stroke="#f0f0d8" stroke-width="0.09375" opacity="1.00" d=" M 1344.61 12.62 C 1348.11 9.96 1350.75 6.38 1353.79 3.23 C 1362.07 10.96 1369.08 19.89 1377.16 27.81 C 1380.87 31.30 1383.38 36.16 1388.05 38.54 C 1387.69 38.69 1386.98 38.99 1386.63 39.14 C 1388.33 41.15 1390.08 43.14 1391.69 45.25 C 1388.66 44.70 1387.08 41.98 1385.14 39.94 C 1377.05 31.21 1369.12 22.35 1361.04 13.61 C 1351.46 24.17 1341.82 34.67 1332.23 45.21 C 1329.62 45.18 1327.02 45.18 1324.43 45.22 C 1317.90 52.62 1311.18 59.84 1304.58 67.17 C 1299.60 61.70 1294.56 56.29 1289.70 50.72 C 1292.53 51.79 1294.37 54.26 1296.71 56.06 C 1310.04 42.27 1322.70 27.86 1336.06 14.10 C 1338.55 12.52 1342.09 14.39 1344.61 12.62 Z" />
<path fill="#f0f0d8" stroke="#f0f0d8" stroke-width="0.09375" opacity="1.00" d=" M 1469.42 3.17 C 1475.86 8.73 1480.43 16.23 1487.35 21.28 C 1485.95 18.46 1483.50 16.17 1482.85 13.02 C 1485.68 13.31 1488.41 14.44 1490.25 16.71 C 1502.54 29.84 1514.64 43.15 1527.04 56.18 C 1531.85 52.28 1535.44 47.16 1539.80 42.79 C 1545.85 36.81 1551.18 30.18 1557.22 24.19 C 1560.58 20.87 1563.21 16.77 1567.09 14.01 C 1569.80 12.91 1572.96 13.77 1575.67 12.59 C 1578.92 9.71 1581.21 5.88 1584.64 3.16 C 1588.19 6.33 1591.04 10.24 1594.77 13.22 C 1598.03 14.20 1602.33 11.94 1604.70 15.26 C 1612.72 23.59 1620.34 32.31 1628.62 40.39 C 1633.62 45.14 1637.65 50.86 1643.15 55.08 C 1643.53 41.74 1642.84 28.38 1643.45 15.06 C 1643.71 15.16 1644.24 15.38 1644.50 15.49 C 1645.23 27.42 1643.85 39.42 1645.09 51.32 C 1648.98 47.78 1651.72 43.22 1655.25 39.33 C 1661.96 31.37 1668.69 23.42 1675.43 15.48 C 1677.21 13.06 1680.79 13.81 1682.88 11.81 C 1685.69 9.22 1687.97 6.13 1690.45 3.23 C 1694.13 6.13 1697.43 9.59 1699.82 13.65 C 1690.14 24.11 1680.57 34.65 1670.96 45.18 C 1668.37 45.19 1665.80 45.19 1663.24 45.18 C 1656.66 52.14 1650.44 59.43 1644.04 66.55 C 1637.47 59.46 1630.98 52.29 1624.60 45.04 C 1621.97 44.96 1619.35 45.03 1616.76 45.27 C 1607.05 34.74 1597.58 23.96 1587.61 13.67 C 1578.08 24.19 1568.49 34.66 1558.96 45.18 C 1556.37 45.19 1553.79 45.19 1551.23 45.18 C 1544.50 52.42 1537.97 59.85 1531.26 67.11 C 1522.46 57.68 1513.92 48.00 1505.14 38.56 C 1503.97 38.56 1502.83 38.56 1501.71 38.57 C 1503.42 40.94 1505.49 43.01 1507.46 45.18 C 1506.04 45.17 1504.64 45.16 1503.26 45.15 C 1493.71 34.73 1484.14 24.31 1474.69 13.80 C 1464.56 23.78 1455.38 34.76 1445.62 45.14 C 1443.04 45.19 1440.46 45.20 1437.91 45.18 C 1431.22 52.51 1424.58 59.86 1417.91 67.20 C 1408.94 57.28 1399.84 47.48 1390.88 37.54 C 1390.56 37.65 1389.93 37.85 1389.62 37.96 C 1386.33 33.18 1381.89 29.36 1378.25 24.87 C 1375.08 21.02 1370.94 17.73 1368.90 13.12 C 1373.74 13.84 1376.22 18.40 1379.31 21.64 C 1386.76 29.21 1393.57 37.38 1401.19 44.80 C 1404.94 48.48 1407.95 52.87 1412.03 56.23 C 1412.75 55.58 1413.48 54.92 1414.20 54.24 C 1426.01 41.05 1438.04 28.07 1450.20 15.21 C 1452.83 11.76 1458.00 14.86 1460.89 11.82 C 1463.91 9.13 1466.42 5.90 1469.42 3.17 M 1488.76 22.71 C 1489.57 25.72 1492.32 27.51 1494.30 29.73 C 1496.62 31.86 1498.40 34.68 1501.28 36.15 C 1500.39 33.49 1497.99 31.84 1496.21 29.83 C 1493.73 27.45 1491.72 24.54 1488.76 22.71 Z" />
<path fill="#f0f0d8" stroke="#f0f0d8" stroke-width="0.09375" opacity="1.00" d=" M 1797.23 12.24 C 1800.39 9.55 1802.90 6.20 1805.84 3.27 C 1811.24 8.48 1816.36 14.01 1821.49 19.49 C 1826.90 26.07 1833.68 31.47 1838.48 38.56 C 1840.04 40.92 1841.97 43.01 1843.68 45.28 C 1842.42 44.97 1841.35 44.38 1840.47 43.52 C 1831.36 33.67 1822.44 23.64 1813.43 13.70 C 1803.48 24.01 1793.88 34.64 1784.21 45.21 C 1781.59 45.17 1778.98 45.18 1776.39 45.23 C 1769.87 52.57 1763.22 59.79 1756.66 67.09 C 1751.77 61.95 1747.03 56.69 1742.26 51.45 C 1745.07 51.75 1746.47 54.60 1748.71 56.03 C 1762.27 42.44 1774.69 27.75 1788.14 14.05 C 1790.81 12.42 1794.72 14.59 1797.23 12.24 Z" />
<path fill="#f0f0d8" stroke="#f0f0d8" stroke-width="0.09375" opacity="1.00" d=" M 0.00 7.65 C 6.86 13.95 12.74 21.19 19.26 27.82 C 22.51 31.25 26.07 34.46 28.55 38.52 C 30.14 40.95 32.22 42.99 33.91 45.33 C 30.66 44.54 28.85 41.58 26.71 39.30 C 18.84 30.78 11.16 22.09 3.16 13.70 C 2.08 14.85 1.00 15.99 0.00 17.21 L 0.00 7.65 Z" />
<path fill="#f0f0d8" stroke="#f0f0d8" stroke-width="0.09375" opacity="1.00" d=" M 1910.88 13.07 C 1912.96 12.29 1914.47 10.52 1916.00 8.95 L 1916.00 24.83 C 1910.55 31.09 1904.85 37.15 1899.32 43.34 C 1897.24 46.53 1893.02 44.77 1889.90 45.17 C 1883.23 52.45 1876.57 59.74 1869.94 67.06 C 1861.10 57.67 1852.58 47.96 1843.79 38.53 C 1843.46 38.52 1842.79 38.50 1842.46 38.48 C 1837.15 32.14 1831.38 26.22 1825.95 19.98 C 1824.10 17.79 1821.88 15.81 1820.81 13.10 C 1822.99 13.63 1825.20 14.46 1826.63 16.31 C 1832.72 23.52 1839.57 30.03 1845.73 37.18 C 1852.05 43.32 1857.79 50.03 1864.06 56.22 C 1872.50 47.94 1879.85 38.59 1888.24 30.23 C 1893.48 24.79 1898.18 18.80 1903.82 13.76 C 1906.11 13.19 1908.53 13.50 1910.88 13.07 Z" />
<path fill="#171f25" stroke="#171f25" stroke-width="0.09375" opacity="1.00" d=" M 0.00 17.21 C 1.00 15.99 2.08 14.85 3.16 13.70 C 11.16 22.09 18.84 30.78 26.71 39.30 C 28.85 41.58 30.66 44.54 33.91 45.33 C 32.22 42.99 30.14 40.95 28.55 38.52 C 29.52 38.52 31.45 38.50 32.41 38.49 C 32.75 38.50 33.43 38.52 33.76 38.53 C 42.67 47.99 51.09 57.93 60.38 67.03 C 66.23 60.02 72.42 53.29 78.66 46.63 C 81.42 43.49 86.72 46.90 89.32 43.38 C 98.45 33.58 107.38 23.59 116.50 13.77 C 126.29 23.94 135.58 34.56 145.06 45.01 C 146.43 44.99 147.80 44.97 149.18 44.95 C 147.27 42.81 145.23 40.76 143.65 38.36 C 144.82 38.45 145.99 38.55 147.16 38.65 C 155.97 47.95 164.45 57.56 172.97 67.13 C 179.50 60.58 185.65 53.66 191.90 46.83 C 194.09 44.18 197.94 45.66 200.87 44.81 C 202.49 43.85 203.61 42.27 204.90 40.92 C 213.27 31.86 221.50 22.68 229.88 13.63 C 239.03 23.68 248.19 33.71 257.31 43.78 C 259.09 45.86 262.21 44.90 264.59 45.23 C 262.66 42.89 260.63 40.63 258.83 38.19 C 264.47 43.87 269.73 49.92 275.23 55.75 C 278.38 59.05 281.31 62.55 283.93 66.29 C 285.05 62.91 286.07 59.41 285.91 55.81 C 286.28 59.35 286.10 62.91 286.09 66.47 C 293.12 59.71 299.39 52.23 305.93 45.01 C 308.52 45.00 311.12 45.00 313.72 44.99 C 323.38 34.47 332.95 23.86 342.88 13.58 C 350.07 22.21 358.14 30.09 365.29 38.78 C 367.80 38.52 370.33 38.27 372.86 38.10 C 378.56 44.28 384.20 50.51 389.84 56.73 C 392.89 60.29 396.15 63.68 399.32 67.14 C 405.88 59.67 412.67 52.39 419.34 45.01 C 421.93 45.00 424.52 45.00 427.11 44.99 C 436.72 34.49 446.02 23.69 456.20 13.72 C 465.04 23.59 473.86 33.47 482.78 43.26 C 483.69 44.43 485.09 44.92 486.49 45.26 C 484.68 43.07 482.76 40.97 481.00 38.74 C 483.02 38.96 485.81 37.55 487.32 39.49 C 495.76 48.66 504.13 57.89 512.54 67.09 C 519.33 59.77 525.96 52.30 532.73 44.96 C 535.36 44.88 538.09 45.36 540.67 44.71 C 550.24 34.32 559.48 23.60 569.63 13.76 C 579.02 24.29 588.46 34.78 598.00 45.18 C 599.01 45.18 601.03 45.19 602.03 45.19 C 600.11 42.97 598.15 40.79 596.21 38.60 C 597.11 38.59 598.93 38.56 599.83 38.54 C 608.50 48.08 617.16 57.62 625.91 67.07 C 632.56 59.77 639.21 52.47 645.88 45.19 C 648.47 45.21 651.08 45.20 653.69 45.12 C 663.27 34.65 672.73 24.08 682.38 13.69 C 692.05 24.13 701.60 34.67 711.18 45.20 C 713.58 45.11 715.99 44.93 718.40 44.63 C 725.69 51.80 732.11 59.81 739.37 67.00 C 745.87 59.53 752.71 52.36 759.34 45.01 C 761.92 45.00 764.51 45.00 767.10 44.99 C 776.58 34.67 785.97 24.25 795.48 13.94 C 795.80 14.07 796.45 14.32 796.77 14.45 C 803.94 22.76 811.76 30.50 818.93 38.82 C 821.87 38.78 825.81 37.25 827.93 40.05 C 831.85 44.07 835.65 48.20 839.30 52.48 C 843.63 57.46 848.09 62.32 852.56 67.17 C 859.15 59.86 865.90 52.67 872.37 45.25 C 874.98 45.18 877.59 45.17 880.21 45.21 C 889.93 34.67 899.40 23.89 909.54 13.74 C 917.58 22.60 925.45 31.62 933.61 40.38 C 935.42 42.26 936.91 44.80 939.70 45.32 C 938.06 43.15 936.23 41.13 934.68 38.90 C 935.43 38.63 936.94 38.10 937.70 37.84 C 938.00 37.78 938.61 37.67 938.91 37.62 C 947.93 47.46 957.00 57.26 965.91 67.21 C 972.56 59.87 979.22 52.53 985.88 45.19 C 988.47 45.21 991.07 45.19 993.68 45.12 C 1003.32 34.66 1012.78 24.03 1022.50 13.65 C 1032.07 24.11 1041.57 34.62 1051.21 45.01 C 1052.56 45.00 1053.93 44.98 1055.31 44.97 C 1053.37 42.90 1051.36 40.89 1049.73 38.57 C 1050.84 38.56 1051.96 38.55 1053.09 38.54 C 1061.87 48.01 1070.44 57.67 1079.25 67.10 C 1085.99 59.86 1092.49 52.41 1099.25 45.18 C 1101.81 45.19 1104.38 45.19 1106.96 45.17 C 1116.59 34.68 1126.06 24.05 1135.81 13.68 C 1145.47 24.19 1154.96 34.87 1164.74 45.29 C 1167.16 45.06 1169.60 44.88 1172.06 44.70 C 1178.68 52.02 1185.35 59.29 1192.04 66.55 C 1198.39 59.39 1204.65 52.13 1211.24 45.18 C 1213.81 45.19 1216.38 45.19 1218.96 45.17 C 1228.47 34.73 1237.97 24.28 1247.52 13.88 C 1247.83 14.07 1248.45 14.44 1248.76 14.63 C 1253.59 19.93 1258.68 25.00 1263.30 30.50 C 1266.02 33.89 1269.70 36.56 1271.58 40.58 C 1272.13 41.26 1272.64 42.49 1273.65 42.51 C 1274.18 40.70 1272.04 39.95 1271.03 38.90 C 1273.31 38.56 1275.61 38.23 1277.91 37.89 C 1281.89 42.12 1285.78 46.43 1289.70 50.72 C 1294.56 56.29 1299.60 61.70 1304.58 67.17 C 1311.18 59.84 1317.90 52.62 1324.43 45.22 C 1327.02 45.18 1329.62 45.18 1332.23 45.21 C 1341.82 34.67 1351.46 24.17 1361.04 13.61 C 1369.12 22.35 1377.05 31.21 1385.14 39.94 C 1387.08 41.98 1388.66 44.70 1391.69 45.25 C 1390.08 43.14 1388.33 41.15 1386.63 39.14 C 1386.98 38.99 1387.69 38.69 1388.05 38.54 L 1389.62 37.96 C 1389.93 37.85 1390.56 37.65 1390.88 37.54 C 1399.84 47.48 1408.94 57.28 1417.91 67.20 C 1424.58 59.86 1431.22 52.51 1437.91 45.18 C 1440.46 45.20 1443.04 45.19 1445.62 45.14 C 1455.38 34.76 1464.56 23.78 1474.69 13.80 C 1484.14 24.31 1493.71 34.73 1503.26 45.15 C 1504.64 45.16 1506.04 45.17 1507.46 45.18 C 1505.49 43.01 1503.42 40.94 1501.71 38.57 C 1502.83 38.56 1503.97 38.56 1505.14 38.56 C 1513.92 48.00 1522.46 57.68 1531.26 67.11 C 1537.97 59.85 1544.50 52.42 1551.23 45.18 C 1553.79 45.19 1556.37 45.19 1558.96 45.18 C 1568.49 34.66 1578.08 24.19 1587.61 13.67 C 1597.58 23.96 1607.05 34.74 1616.76 45.27 C 1619.35 45.03 1621.97 44.96 1624.60 45.04 C 1630.98 52.29 1637.47 59.46 1644.04 66.55 C 1650.44 59.43 1656.66 52.14 1663.24 45.18 C 1665.80 45.19 1668.37 45.19 1670.96 45.18 C 1680.57 34.65 1690.14 24.11 1699.82 13.65 C 1707.94 21.86 1715.37 30.75 1723.17 39.27 C 1725.26 38.05 1727.80 38.47 1730.13 38.14 C 1734.19 42.56 1738.27 46.97 1742.26 51.45 C 1747.03 56.69 1751.77 61.95 1756.66 67.09 C 1763.22 59.79 1769.87 52.57 1776.39 45.23 C 1778.98 45.18 1781.59 45.17 1784.21 45.21 C 1793.88 34.64 1803.48 24.01 1813.43 13.70 C 1822.44 23.64 1831.36 33.67 1840.47 43.52 C 1841.35 44.38 1842.42 44.97 1843.68 45.28 C 1841.97 43.01 1840.04 40.92 1838.48 38.56 C 1839.48 38.54 1841.47 38.50 1842.46 38.48 C 1842.79 38.50 1843.46 38.52 1843.79 38.53 C 1852.58 47.96 1861.10 57.67 1869.94 67.06 C 1876.57 59.74 1883.23 52.45 1889.90 45.17 C 1893.02 44.77 1897.24 46.53 1899.32 43.34 C 1904.85 37.15 1910.55 31.09 1916.00 24.83 L 1916.00 125.00 L 0.00 125.00 L 0.00 17.21 Z" />
<path fill="#ffffff" stroke="#ffffff" stroke-width="0.09375" opacity="1.00" d=" M 1035.73 21.75 C 1038.76 23.46 1040.69 26.48 1043.21 28.81 C 1045.00 30.84 1047.49 32.49 1048.23 35.24 C 1045.29 33.41 1043.24 30.54 1040.77 28.18 C 1038.95 26.16 1036.53 24.48 1035.73 21.75 Z" />
<path fill="#ffffff" stroke="#ffffff" stroke-width="0.09375" opacity="1.00" d=" M 1488.76 22.71 C 1491.72 24.54 1493.73 27.45 1496.21 29.83 C 1497.99 31.84 1500.39 33.49 1501.28 36.15 C 1498.40 34.68 1496.62 31.86 1494.30 29.73 C 1492.32 27.51 1489.57 25.72 1488.76 22.71 Z" />
</svg>
