<?xml version="1.0" encoding="UTF-8" ?>
<!DOCTYPE svg PUBLIC "-//W3C//DTD SVG 1.1//EN" "http://www.w3.org/Graphics/SVG/1.1/DTD/svg11.dtd">
<svg width="909pt" height="163pt" viewBox="0 0 909 163" version="1.1" xmlns="http://www.w3.org/2000/svg">
<path fill="#f0f0d8" stroke="#f0f0d8" stroke-width="0.09375" opacity="1.00" d=" M 0.00 0.00 L 0.66 0.00 C 0.96 2.21 0.75 4.52 1.38 6.67 C 4.48 10.51 8.53 13.49 11.66 17.32 C 17.30 24.00 23.65 30.03 29.48 36.55 C 32.61 40.01 36.28 43.12 38.16 47.50 C 39.84 50.66 42.32 53.28 44.27 56.26 C 42.24 54.81 40.32 53.20 38.68 51.32 C 27.58 38.86 16.19 26.66 4.86 14.41 C 3.22 16.14 1.55 17.86 0.00 19.69 L 0.00 0.00 Z" />
<path fill="#f0f0d8" stroke="#f0f0d8" stroke-width="0.09375" opacity="1.00" d=" M 137.81 11.77 C 141.71 8.23 144.99 4.05 149.08 0.70 C 158.20 8.56 164.95 18.85 174.46 26.25 C 172.14 21.95 168.08 19.02 165.46 14.93 C 167.89 14.29 170.73 13.30 172.97 15.01 C 178.68 19.26 182.91 25.11 187.79 30.23 C 193.57 36.15 198.95 42.46 204.78 48.34 C 211.78 56.12 218.69 64.07 226.87 70.65 C 241.05 56.55 253.67 40.98 267.78 26.80 C 271.27 23.26 274.04 19.03 277.88 15.84 C 281.84 12.53 288.02 15.48 291.83 11.82 C 295.81 8.37 298.60 3.73 302.89 0.62 C 307.52 4.83 311.69 9.50 316.15 13.86 C 319.35 13.95 322.59 13.82 325.75 14.43 C 328.06 15.12 329.66 17.08 331.37 18.67 C 335.66 23.05 340.00 27.39 343.94 32.10 C 350.12 38.91 357.04 45.02 363.14 51.91 C 368.55 58.21 374.42 64.09 380.50 69.75 C 386.17 61.77 392.67 54.42 399.04 46.99 C 406.16 38.79 413.02 30.36 420.18 22.19 C 422.67 19.44 424.62 15.74 428.40 14.59 C 430.95 13.59 433.91 13.02 435.72 10.75 C 438.66 7.27 441.47 3.65 444.99 0.72 C 450.18 4.23 453.79 9.40 457.75 14.14 C 444.67 28.07 431.62 42.03 418.77 56.16 C 415.29 56.19 411.82 56.19 408.35 56.20 C 399.94 65.59 391.76 75.23 382.68 83.99 C 382.57 79.37 383.00 74.62 381.71 70.12 C 381.07 74.79 380.59 79.52 378.88 83.95 C 372.04 74.62 363.75 66.50 356.05 57.91 C 352.39 54.19 349.12 50.05 344.96 46.86 C 347.15 50.29 349.91 53.31 352.43 56.50 C 349.27 56.08 345.32 56.81 343.17 53.86 C 331.13 40.70 319.24 27.40 307.11 14.31 C 297.32 24.82 287.72 35.50 277.98 46.05 C 274.91 49.29 272.21 52.94 268.63 55.64 C 265.47 56.49 262.09 56.00 258.95 56.94 C 257.12 57.62 255.88 59.22 254.56 60.57 C 246.91 69.06 239.17 77.48 231.13 85.60 C 221.29 74.24 211.20 63.08 200.96 52.08 C 199.18 50.42 197.84 47.61 195.10 47.55 C 194.17 47.46 192.32 47.27 191.39 47.17 C 193.38 50.38 195.83 53.26 198.42 55.99 C 196.97 56.07 195.52 56.14 194.07 56.21 C 181.55 42.12 168.86 28.18 155.92 14.47 C 143.83 27.55 131.84 40.72 119.78 53.83 C 116.23 58.28 109.37 54.38 105.49 58.31 C 97.09 67.13 88.94 76.19 81.06 85.49 C 68.88 73.20 57.43 60.21 45.70 47.49 C 44.60 47.50 43.49 47.50 42.39 47.50 C 38.40 41.60 33.16 36.74 28.55 31.36 C 23.61 25.77 17.82 20.68 14.65 13.79 C 21.03 14.90 25.00 20.50 29.16 24.91 C 35.26 32.09 42.14 38.55 48.32 45.66 C 56.52 53.93 63.89 63.00 72.38 70.99 C 78.19 65.94 82.94 59.84 88.27 54.31 C 100.34 42.03 111.54 28.94 123.59 16.64 C 127.09 12.08 133.91 15.66 137.81 11.77 Z" />
<path fill="#f0f0d8" stroke="#f0f0d8" stroke-width="0.09375" opacity="1.00" d=" M 586.08 13.09 C 590.96 9.80 594.23 4.73 598.14 0.44 C 603.94 4.73 608.45 10.40 613.25 15.71 C 621.95 24.74 630.47 33.94 638.80 43.31 C 640.44 45.27 642.79 46.39 645.20 47.11 C 641.91 40.33 635.55 35.88 630.87 30.15 C 626.50 24.64 620.80 20.11 617.67 13.70 C 624.53 14.43 628.39 20.68 632.79 25.20 C 637.29 29.72 641.55 34.46 645.78 39.23 C 656.14 49.72 665.47 61.23 676.62 70.93 C 690.53 56.04 704.01 40.75 718.24 26.15 C 721.53 22.79 724.33 18.95 727.85 15.82 C 731.53 12.49 737.46 15.55 741.13 12.17 C 745.25 8.51 748.82 4.26 753.01 0.65 C 760.16 7.15 765.75 15.21 773.28 21.31 C 772.05 19.04 770.75 16.81 769.46 14.58 C 772.12 14.20 775.36 13.31 777.50 15.53 C 790.76 29.57 803.77 43.86 817.15 57.80 C 821.22 62.21 824.81 67.21 829.77 70.69 C 837.02 64.30 842.89 56.53 849.79 49.77 C 859.65 38.97 869.56 28.21 879.64 17.61 C 883.80 12.59 891.60 15.62 896.01 11.02 C 899.42 7.70 902.41 3.95 905.98 0.76 C 906.97 1.18 907.98 1.59 909.00 2.00 L 909.00 15.80 C 896.81 29.31 884.41 42.64 872.23 56.16 C 868.68 56.23 865.14 56.46 861.60 56.56 C 852.71 66.18 843.93 75.89 835.08 85.53 C 823.54 72.76 811.94 60.04 800.22 47.44 C 798.40 47.50 796.60 47.57 794.81 47.66 C 797.24 50.75 799.98 53.58 802.34 56.73 C 800.53 56.32 798.25 56.71 796.92 55.15 C 784.63 41.62 772.46 27.97 760.12 14.48 C 747.20 27.16 735.15 40.68 722.97 54.06 C 720.02 57.92 714.43 55.12 710.54 56.60 C 701.50 66.05 692.89 75.93 684.00 85.54 C 672.89 73.47 661.94 61.24 650.76 49.24 C 648.41 46.31 644.34 47.98 641.19 47.91 C 643.37 50.73 645.80 53.36 647.88 56.27 C 644.47 54.41 642.08 51.31 639.58 48.43 C 629.32 37.13 619.19 25.71 608.91 14.43 C 595.36 27.81 582.70 42.04 569.96 56.17 C 566.45 56.18 562.94 56.18 559.43 56.26 C 550.70 66.11 541.73 75.75 533.01 85.60 C 528.59 81.08 524.53 76.23 520.22 71.60 C 525.74 68.51 529.84 63.65 533.85 58.88 C 546.58 44.93 559.84 31.47 572.27 17.24 C 575.50 12.64 581.54 14.76 586.08 13.09 Z" />
<path fill="#171f25" stroke="#171f25" stroke-width="0.09375" opacity="1.00" d=" M 457.75 14.14 C 467.44 25.50 477.84 36.23 487.61 47.52 C 490.96 48.00 494.39 47.05 497.78 46.93 C 505.28 55.13 512.79 63.34 520.22 71.60 C 524.53 76.23 528.59 81.08 533.01 85.60 C 541.73 75.75 550.70 66.11 559.43 56.26 C 562.94 56.18 566.45 56.18 569.96 56.17 C 582.70 42.04 595.36 27.81 608.91 14.43 C 619.19 25.71 629.32 37.13 639.58 48.43 C 642.08 51.31 644.47 54.41 647.88 56.27 C 645.80 53.36 643.37 50.73 641.19 47.91 C 644.34 47.98 648.41 46.31 650.76 49.24 C 661.94 61.24 672.89 73.47 684.00 85.54 C 692.89 75.93 701.50 66.05 710.54 56.60 C 714.43 55.12 720.02 57.92 722.97 54.06 C 735.15 40.68 747.20 27.16 760.12 14.48 C 772.46 27.97 784.63 41.62 796.92 55.15 C 798.25 56.71 800.53 56.32 802.34 56.73 C 799.98 53.58 797.24 50.75 794.81 47.66 C 796.60 47.57 798.40 47.50 800.22 47.44 C 811.94 60.04 823.54 72.76 835.08 85.53 C 843.93 75.89 852.71 66.18 861.60 56.56 C 865.14 56.46 868.68 56.23 872.23 56.16 C 884.41 42.64 896.81 29.31 909.00 15.80 L 909.00 163.00 L 0.00 163.00 L 0.00 19.69 C 1.55 17.86 3.22 16.14 4.86 14.41 C 16.19 26.66 27.58 38.86 38.68 51.32 C 40.32 53.20 42.24 54.81 44.27 56.26 C 42.32 53.28 39.84 50.66 38.16 47.50 C 39.57 47.50 40.98 47.50 42.39 47.50 C 43.49 47.50 44.60 47.50 45.70 47.49 C 57.43 60.21 68.88 73.20 81.06 85.49 C 88.94 76.19 97.09 67.13 105.49 58.31 C 109.37 54.38 116.23 58.28 119.78 53.83 C 131.84 40.72 143.83 27.55 155.92 14.47 C 168.86 28.18 181.55 42.12 194.07 56.21 C 195.52 56.14 196.97 56.07 198.42 55.99 C 195.83 53.26 193.38 50.38 191.39 47.17 C 192.32 47.27 194.17 47.46 195.10 47.55 C 197.84 47.61 199.18 50.42 200.96 52.08 C 211.20 63.08 221.29 74.24 231.13 85.60 C 239.17 77.48 246.91 69.06 254.56 60.57 C 255.88 59.22 257.12 57.62 258.95 56.94 C 262.09 56.00 265.47 56.49 268.63 55.64 C 272.21 52.94 274.91 49.29 277.98 46.05 C 287.72 35.50 297.32 24.82 307.11 14.31 C 319.24 27.40 331.13 40.70 343.17 53.86 C 345.32 56.81 349.27 56.08 352.43 56.50 C 349.91 53.31 347.15 50.29 344.96 46.86 C 349.12 50.05 352.39 54.19 356.05 57.91 C 363.75 66.50 372.04 74.62 378.88 83.95 C 380.59 79.52 381.07 74.79 381.71 70.12 C 383.00 74.62 382.57 79.37 382.68 83.99 C 391.76 75.23 399.94 65.59 408.35 56.20 C 411.82 56.19 415.29 56.19 418.77 56.16 C 431.62 42.03 444.67 28.07 457.75 14.14 Z" />
</svg>
