<svg width="100" height="100" viewBox="0 0 100 100" fill="none" xmlns="http://www.w3.org/2000/svg">
<g clip-path="url(#clip0_78_142)">
<path d="M79.1667 25H70.8333C70.8333 13.5 61.5 4.16663 50 4.16663C38.5 4.16663 29.1667 13.5 29.1667 25H20.8333C16.25 25 12.5417 28.75 12.5417 33.3333L12.5 83.3333C12.5 87.9166 16.25 91.6666 20.8333 91.6666H79.1667C83.75 91.6666 87.5 87.9166 87.5 83.3333V33.3333C87.5 28.75 83.75 25 79.1667 25ZM50 12.5C56.9167 12.5 62.5 18.0833 62.5 25H37.5C37.5 18.0833 43.0833 12.5 50 12.5ZM50 54.1666C38.5 54.1666 29.1667 44.8333 29.1667 33.3333H37.5C37.5 40.25 43.0833 45.8333 50 45.8333C56.9167 45.8333 62.5 40.25 62.5 33.3333H70.8333C70.8333 44.8333 61.5 54.1666 50 54.1666Z" fill="#E3E3E3"/>
</g>
<defs>
<clipPath id="clip0_78_142">
<rect width="100" height="100" fill="white"/>
</clipPath>
</defs>
</svg>
