<?xml version="1.0" encoding="UTF-8" ?>
<!DOCTYPE svg PUBLIC "-//W3C//DTD SVG 1.1//EN" "http://www.w3.org/Graphics/SVG/1.1/DTD/svg11.dtd">
<svg width="461pt" height="387pt" viewBox="0 0 461 387" version="1.1" xmlns="http://www.w3.org/2000/svg">
<path fill="#39807d" stroke="#39807d" stroke-width="0.09375" opacity="1.00" d=" M 248.04 21.77 C 257.29 20.32 266.70 20.86 276.03 20.74 C 280.82 20.68 286.32 21.52 289.27 25.76 C 292.60 29.54 290.25 34.72 289.24 38.94 C 261.43 145.02 232.54 250.81 204.93 356.95 C 203.57 363.18 199.76 369.25 193.67 371.74 C 185.90 374.90 177.28 374.47 169.05 374.48 C 164.14 374.11 158.93 374.78 154.35 372.59 C 152.10 371.68 150.34 369.96 148.58 368.35 C 147.68 361.38 149.93 354.59 151.61 347.92 C 179.06 242.51 206.69 137.16 234.65 31.89 C 236.58 26.25 242.32 22.60 248.04 21.77 Z" />
<path fill="#39807d" stroke="#39807d" stroke-width="0.09375" opacity="1.00" d=" M 124.50 79.63 C 130.79 77.94 137.27 80.96 142.07 84.90 C 150.11 91.41 155.10 102.39 152.76 112.71 C 150.43 120.17 144.20 125.42 138.87 130.79 C 116.73 153.01 93.23 173.89 72.12 197.13 C 69.64 200.23 72.36 204.09 74.63 206.41 C 96.00 227.70 117.61 248.74 139.11 269.90 C 144.86 275.59 150.91 282.45 150.89 291.04 C 150.06 299.34 146.22 307.42 140.19 313.23 C 135.78 317.47 129.36 320.06 123.24 318.67 C 117.70 316.84 113.25 312.86 109.13 308.87 C 84.88 285.09 60.56 261.39 36.06 237.86 C 27.79 230.18 19.40 222.53 12.34 213.69 C 8.09 208.23 5.72 200.95 7.32 194.07 C 8.98 187.68 13.25 182.37 17.85 177.80 C 46.66 150.61 75.44 123.39 104.34 96.29 C 110.74 90.42 116.49 83.40 124.50 79.63 Z" />
<path fill="#39807d" stroke="#39807d" stroke-width="0.09375" opacity="1.00" d=" M 326.19 79.33 C 331.52 77.49 337.51 78.90 342.01 82.11 C 347.55 86.14 352.52 90.87 357.32 95.72 C 381.48 119.23 405.81 142.57 429.91 166.13 C 436.88 173.12 444.73 179.47 450.01 187.92 C 454.42 195.00 453.46 204.30 449.14 211.18 C 444.28 218.81 437.39 224.79 431.02 231.10 C 404.66 256.73 378.34 282.41 351.97 308.03 C 348.18 311.56 344.39 315.17 339.99 317.93 C 334.46 321.08 327.67 319.34 322.39 316.54 C 315.76 312.75 309.77 307.28 306.95 300.02 C 304.90 295.74 305.07 290.52 307.40 286.38 C 310.54 280.45 315.73 276.06 320.35 271.33 C 341.82 250.11 363.08 228.67 384.36 207.25 C 386.53 205.06 388.81 202.31 388.58 199.03 C 388.31 196.04 385.82 194.07 383.95 192.01 C 361.50 169.78 338.99 147.62 316.58 125.35 C 310.74 119.54 305.20 111.71 307.13 102.99 C 309.48 92.87 316.52 83.47 326.19 79.33 Z" />
</svg>
