<?xml version="1.0" encoding="UTF-8" ?>
<!DOCTYPE svg PUBLIC "-//W3C//DTD SVG 1.1//EN" "http://www.w3.org/Graphics/SVG/1.1/DTD/svg11.dtd">
<svg width="1044pt" height="290pt" viewBox="0 0 1044 290" version="1.1" xmlns="http://www.w3.org/2000/svg">
<path fill="#39807d" stroke="#39807d" stroke-width="0.09375" opacity="1.00" d=" M 186.23 24.17 C 187.13 19.92 191.12 17.17 195.17 16.36 C 202.02 14.96 209.05 15.68 215.99 15.47 C 219.61 15.45 224.00 15.38 226.43 18.58 C 228.38 20.43 228.08 23.25 227.43 25.61 C 215.78 69.60 204.22 113.62 192.35 157.55 C 182.32 194.29 172.91 231.19 163.15 268.00 C 162.21 272.41 159.30 276.61 154.94 278.15 C 147.57 280.76 139.59 279.98 131.92 279.83 C 128.15 279.90 124.47 278.62 121.89 275.80 C 121.41 272.39 121.87 268.96 122.80 265.67 C 143.76 185.12 164.86 104.61 186.23 24.17 Z" />
<path fill="#39807d" stroke="#39807d" stroke-width="0.09375" opacity="1.00" d=" M 103.36 59.60 C 106.08 58.76 109.03 59.41 111.61 60.43 C 120.03 64.06 125.63 73.47 124.62 82.61 C 124.00 87.12 120.58 90.48 117.73 93.78 C 100.06 111.75 81.00 128.35 64.03 147.00 C 61.54 149.55 64.11 152.91 66.06 154.86 C 82.29 170.98 98.68 186.95 115.03 202.94 C 119.49 207.28 123.77 213.13 122.67 219.71 C 120.85 228.40 114.89 238.34 104.95 238.49 C 100.19 238.29 96.43 234.95 93.07 231.90 C 76.15 215.47 59.44 198.81 42.33 182.57 C 34.87 175.01 26.49 168.34 19.81 160.03 C 16.34 155.66 14.41 149.65 16.22 144.17 C 18.22 137.30 24.04 132.68 29.05 127.98 C 47.93 110.22 66.70 92.34 85.63 74.63 C 91.56 69.67 96.27 63.02 103.36 59.60 Z" />
<path fill="#39807d" stroke="#39807d" stroke-width="0.09375" opacity="1.00" d=" M 255.33 59.14 C 259.40 57.93 263.87 59.30 267.16 61.84 C 273.20 66.41 278.27 72.08 283.78 77.26 C 302.75 95.28 321.27 113.77 340.13 131.92 C 344.52 136.31 349.40 141.38 349.32 148.04 C 349.61 155.52 344.40 161.48 339.47 166.45 C 319.31 186.30 298.85 205.84 278.64 225.63 C 274.39 229.71 270.32 234.07 265.42 237.40 C 262.36 239.45 258.40 239.08 255.07 237.98 C 247.86 235.41 241.65 229.44 239.76 221.91 C 238.61 216.43 242.24 211.51 245.90 207.87 C 262.78 191.08 279.69 174.32 296.36 157.33 C 298.57 154.92 301.91 152.75 301.88 149.10 C 302.06 146.96 300.27 145.46 298.98 144.02 C 284.10 129.24 269.15 114.52 254.20 99.80 C 249.85 95.48 244.99 91.43 242.03 85.97 C 239.88 81.93 240.14 77.09 241.90 72.97 C 244.30 66.83 249.05 61.43 255.33 59.14 Z" />
<path fill="#e1dac0" stroke="#e1dac0" stroke-width="0.09375" opacity="1.00" d=" M 395.06 98.25 C 407.69 98.28 420.35 97.80 432.95 98.76 C 446.14 99.60 459.12 106.41 466.47 117.54 C 474.29 129.07 476.30 143.86 473.43 157.35 C 471.41 169.60 464.09 181.00 453.43 187.46 C 445.53 192.24 436.15 193.91 427.02 193.83 C 416.37 193.74 405.72 193.88 395.08 193.76 C 394.94 161.92 394.96 130.09 395.06 98.25 M 414.27 115.84 C 414.26 136.14 414.47 156.43 414.39 176.72 C 422.22 176.71 430.29 177.30 437.87 174.89 C 443.71 173.02 448.22 168.23 450.70 162.72 C 454.16 155.51 454.19 147.25 453.43 139.46 C 452.23 130.44 447.20 121.11 438.33 117.70 C 430.62 114.91 422.27 116.45 414.27 115.84 Z" />
<path fill="#e1dac0" stroke="#e1dac0" stroke-width="0.09375" opacity="1.00" d=" M 622.83 98.24 C 641.43 98.17 660.02 98.15 678.62 98.25 C 678.71 104.15 678.69 110.04 678.64 115.93 C 666.37 116.11 654.10 115.92 641.83 116.03 C 641.78 123.83 641.78 131.64 641.83 139.45 C 652.70 139.59 663.57 139.38 674.44 139.56 C 674.50 145.35 674.69 151.13 674.78 156.92 C 663.86 157.12 652.94 156.93 642.02 157.01 C 641.84 169.26 642.33 181.50 642.05 193.75 C 635.64 193.84 629.24 193.83 622.83 193.76 C 622.69 161.92 622.69 130.08 622.83 98.24 Z" />
<path fill="#e1dac0" stroke="#e1dac0" stroke-width="0.09375" opacity="1.00" d=" M 921.66 98.22 C 945.42 98.20 969.17 98.14 992.93 98.25 C 993.01 104.15 993.21 110.05 993.08 115.95 C 984.47 116.08 975.86 115.92 967.26 116.03 C 967.20 141.95 967.61 167.86 967.27 193.78 C 960.86 193.82 954.46 193.83 948.05 193.77 C 948.19 167.86 947.78 141.94 948.20 116.03 C 939.40 115.94 930.60 116.06 921.80 115.97 C 921.75 110.05 921.68 104.14 921.66 98.22 Z" />
<path fill="#e1dac0" stroke="#e1dac0" stroke-width="0.09375" opacity="1.00" d=" M 1005.07 98.25 C 1011.43 98.16 1017.80 98.17 1024.17 98.24 C 1024.32 130.09 1024.30 161.94 1024.18 193.78 C 1017.77 193.81 1011.37 193.86 1004.98 193.73 C 1004.97 161.91 1004.96 130.07 1005.07 98.25 Z" />
<path fill="#e1dac0" stroke="#e1dac0" stroke-width="0.09375" opacity="1.00" d=" M 491.71 131.68 C 503.81 117.58 528.94 117.75 540.42 132.52 C 547.57 141.44 548.11 153.58 547.05 164.48 C 531.62 164.58 516.18 164.42 500.74 164.56 C 501.46 170.13 504.49 176.14 510.27 177.76 C 519.49 180.05 529.02 176.96 537.18 172.67 C 540.93 175.91 543.69 180.05 546.56 184.05 C 539.29 190.70 529.74 194.68 519.90 195.18 C 509.48 196.05 498.47 192.54 491.37 184.67 C 485.72 179.27 483.12 171.47 482.56 163.83 C 481.60 152.57 483.60 140.13 491.71 131.68 M 507.07 138.11 C 502.74 140.57 501.14 145.60 500.09 150.16 C 509.47 150.06 518.85 150.43 528.24 150.46 C 527.56 145.80 526.97 140.09 522.43 137.49 C 517.68 135.09 511.66 135.57 507.07 138.11 Z" />
<path fill="#e1dac0" stroke="#e1dac0" stroke-width="0.09375" opacity="1.00" d=" M 763.89 121.78 C 772.93 120.38 782.80 122.04 790.10 127.80 C 794.46 131.31 798.00 135.98 799.61 141.39 C 801.98 148.79 801.49 156.66 801.50 164.32 C 786.02 164.79 770.53 164.34 755.04 164.54 C 755.92 169.92 758.52 175.98 764.16 177.75 C 773.68 180.48 783.36 176.54 791.79 172.29 C 794.83 176.08 797.80 179.92 800.72 183.81 C 792.79 190.68 782.70 195.59 772.01 195.27 C 760.98 195.65 749.76 190.79 743.14 181.86 C 738.47 175.98 736.87 168.35 736.49 161.01 C 736.18 153.70 737.39 146.26 740.44 139.59 C 744.90 130.45 753.76 123.36 763.89 121.78 M 763.88 136.77 C 758.19 138.57 755.26 144.59 754.62 150.16 C 763.90 150.23 773.18 150.22 782.46 150.16 C 781.87 145.95 781.47 140.99 777.81 138.19 C 773.79 135.41 768.42 135.54 763.88 136.77 Z" />
<path fill="#e1dac0" stroke="#e1dac0" stroke-width="0.09375" opacity="1.00" d=" M 547.75 122.27 C 554.39 122.10 561.03 122.14 567.66 122.59 C 572.43 138.36 578.11 153.84 582.79 169.63 C 585.52 163.92 586.78 157.69 588.78 151.72 C 591.96 142.01 595.22 132.33 598.25 122.58 C 604.78 122.18 611.33 122.03 617.88 122.33 C 609.80 146.22 601.39 170.02 592.95 193.79 C 586.33 193.82 579.71 193.83 573.09 193.78 C 564.54 169.98 556.02 146.16 547.75 122.27 Z" />
<path fill="#e1dac0" stroke="#e1dac0" stroke-width="0.09375" opacity="1.00" d=" M 688.41 122.59 C 693.53 122.04 698.68 122.05 703.80 122.55 C 704.40 126.22 704.96 129.88 705.45 133.57 C 708.77 129.73 712.56 126.13 717.35 124.21 C 722.04 122.04 727.29 121.83 732.38 121.98 C 732.53 128.31 732.16 134.64 732.04 140.97 C 726.39 140.51 720.34 140.28 715.24 143.18 C 710.12 145.69 707.03 151.32 707.05 156.95 C 706.88 169.22 707.11 181.50 706.95 193.77 C 700.77 193.82 694.58 193.87 688.40 193.73 C 688.29 170.02 688.27 146.30 688.41 122.59 Z" />
<path fill="#e1dac0" stroke="#e1dac0" stroke-width="0.09375" opacity="1.00" d=" M 815.47 133.42 C 820.27 126.82 827.96 122.48 836.06 121.66 C 845.90 120.69 856.90 122.50 863.81 130.18 C 872.97 138.97 873.77 152.58 872.93 164.47 C 857.36 164.58 841.78 164.43 826.21 164.54 C 826.79 169.78 829.17 175.59 834.53 177.47 C 844.38 180.55 854.59 176.76 863.28 172.13 C 866.08 176.14 869.07 180.02 872.15 183.82 C 863.00 192.19 850.23 196.47 837.89 194.92 C 829.54 194.17 821.62 190.18 815.88 184.11 C 810.42 178.07 807.80 169.93 807.41 161.90 C 806.94 151.91 809.16 141.40 815.47 133.42 M 829.54 140.38 C 827.05 143.03 826.43 146.73 825.69 150.15 C 835.08 150.23 844.46 150.23 853.85 150.15 C 853.08 145.48 852.11 139.84 847.60 137.33 C 841.72 135.00 834.00 135.47 829.54 140.38 Z" />
<path fill="#e1dac0" stroke="#e1dac0" stroke-width="0.09375" opacity="1.00" d=" M 878.05 190.05 C 894.28 190.00 910.51 189.90 926.73 190.10 C 926.84 194.45 926.84 198.81 926.75 203.16 C 910.51 203.15 894.27 202.90 878.03 202.97 C 877.96 198.66 877.96 194.35 878.05 190.05 Z" />
</svg>
