<svg width="100" height="100" viewBox="0 0 100 100" fill="none" xmlns="http://www.w3.org/2000/svg">
<g clip-path="url(#clip0_77_114)">
<path d="M64.5834 4.16666H31.25C25.5 4.16666 20.8334 8.83332 20.8334 14.5833V85.4167C20.8334 91.1667 25.5 95.8333 31.25 95.8333H64.5834C70.3334 95.8333 75 91.1667 75 85.4167V14.5833C75 8.83332 70.3334 4.16666 64.5834 4.16666ZM47.9167 91.6667C44.4584 91.6667 41.6667 88.875 41.6667 85.4167C41.6667 81.9583 44.4584 79.1667 47.9167 79.1667C51.375 79.1667 54.1667 81.9583 54.1667 85.4167C54.1667 88.875 51.375 91.6667 47.9167 91.6667ZM66.6667 75H29.1667V16.6667H66.6667V75Z" fill="#E3E3E3"/>
</g>
<defs>
<clipPath id="clip0_77_114">
<rect width="100" height="100" fill="white"/>
</clipPath>
</defs>
</svg>
