<svg width="100" height="100" viewBox="0 0 100 100" fill="none" xmlns="http://www.w3.org/2000/svg">
<g clip-path="url(#clip0_78_125)">
<path d="M91.25 37.0417L86.875 18.8333C85.9584 15.0833 82.7084 12.5 78.9167 12.5H21.0417C17.2917 12.5 14 15.125 13.125 18.8333L8.75003 37.0417C7.75003 41.2917 8.66669 45.625 11.3334 49.0417C11.6667 49.5 12.125 49.8333 12.5 50.25V79.1667C12.5 83.75 16.25 87.5 20.8334 87.5H79.1667C83.75 87.5 87.5 83.75 87.5 79.1667V50.25C87.875 49.875 88.3334 49.5 88.6667 49.0833C91.3334 45.6667 92.2917 41.2917 91.25 37.0417ZM78.7917 20.7917L83.1667 39C83.5834 40.75 83.2084 42.5 82.125 43.875C81.5417 44.625 80.2917 45.8333 78.2084 45.8333C75.6667 45.8333 73.4584 43.7917 73.1667 41.0833L70.75 20.8333L78.7917 20.7917ZM54.1667 20.8333H62.3334L64.5834 39.6667C64.7917 41.2917 64.2917 42.9167 63.2084 44.125C62.2917 45.2083 60.9584 45.8333 59.25 45.8333C56.4584 45.8333 54.1667 43.375 54.1667 40.375V20.8333ZM35.375 39.6667L37.6667 20.8333H45.8334V40.375C45.8334 43.375 43.5417 45.8333 40.4584 45.8333C39.0417 45.8333 37.75 45.2083 36.75 44.125C35.7084 42.9167 35.2084 41.2917 35.375 39.6667ZM16.8334 39L21.0417 20.8333H29.25L26.8334 41.0833C26.5 43.7917 24.3334 45.8333 21.7917 45.8333C19.75 45.8333 18.4584 44.625 17.9167 43.875C16.7917 42.5417 16.4167 40.75 16.8334 39ZM20.8334 79.1667V54.0417C21.1667 54.0833 21.4584 54.1667 21.7917 54.1667C25.4167 54.1667 28.7084 52.6667 31.125 50.2083C33.625 52.7083 36.9584 54.1667 40.75 54.1667C44.375 54.1667 47.625 52.6667 50.0417 50.2917C52.5 52.6667 55.8334 54.1667 59.5834 54.1667C63.0834 54.1667 66.4167 52.7083 68.9167 50.2083C71.3334 52.6667 74.625 54.1667 78.25 54.1667C78.5834 54.1667 78.875 54.0833 79.2084 54.0417V79.1667H20.8334Z" fill="#E3E3E3"/>
</g>
<defs>
<clipPath id="clip0_78_125">
<rect width="100" height="100" fill="white"/>
</clipPath>
</defs>
</svg>
